<svg viewBox="0 0 2151 903" xmlns="http://www.w3.org/2000/svg"><g fill="none" fill-rule="evenodd"><path d="M312.36 476.44c-.337.027-.711-.245-.711-.606v-1.132c0-.36.225-.68.605-.711.338-.027.712.245.712.606v1.132c0 .36-.225.68-.606.711" fill="#E6E7E8"/><path d="M0 351.1h428.45v499.853H0z"/><path fill="#E6E7E8" d="M395.58 597.85l1.21-5.33 5.33-1.21-5.33-1.21-1.21-5.33-1.21 5.33-5.33 1.21 5.33 1.21 1.21 5.33M381.32 745l1.02-4.5 4.5-1.02-4.5-1.03-1.02-4.5-1.03 4.5-4.5 1.03 4.5 1.02 1.03 4.5M297.29 694.1c-.331.4-.896.744-1.432.744h-1.131c-.558 0-1.05-.107-1.492-.472a2.087 2.087 0 01-.744-1.432 2.09 2.09 0 01.472-1.492c.331-.4.896-.743 1.432-.743h1.132c.558 0 1.05.106 1.491.472.428.354.7.877.744 1.431a2.087 2.087 0 01-.472 1.492M409.95 755.434c-.354.23-.877.377-1.431.401-.537.023-1.078-.07-1.492-.254-.4-.18-.744-.484-.744-.773v-.61c0-.302.107-.567.472-.805.355-.23.878-.377 1.432-.401.536-.024 1.078.07 1.491.254.4.179.744.484.744.773v.61c0 .301-.106.567-.472.805M331.96 685.51c-.337.027-.711-.245-.711-.606v-1.132c0-.36.225-.68.605-.71.337-.028.711.244.711.605v1.132c0 .36-.224.68-.605.711M361.79 754.412c-.337.027-.711-.245-.711-.606v-1.132c0-.36.225-.68.605-.71.338-.028.711.244.711.605v1.132c0 .36-.224.68-.605.711M369.79 531.1c-.337.027-.712-.245-.712-.606v-1.132c0-.36.225-.68.606-.71.337-.028.711.245.711.605v1.132c0 .36-.224.68-.605.711M311.62 572.7h-1.132c-.565 0-1.07-.353-1.118-.951-.043-.53.386-1.118.952-1.118h1.132c.565 0 1.07.353 1.117.951.043.53-.385 1.118-.951 1.118M311.62 615.71h-1.132c-.565 0-1.07-.354-1.118-.952-.043-.53.386-1.118.952-1.118h1.132c.565 0 1.07.354 1.117.952.043.53-.385 1.118-.951 1.118M357.96 621.98c-1.328 0-1.508-2.07-.166-2.07 1.327 0 1.507 2.07.166 2.07M336.11 448.09h-1.132c-.565 0-1.07-.353-1.118-.951-.043-.53.386-1.118.952-1.118h1.132c.565 0 1.07.353 1.118.951.042.53-.386 1.118-.952 1.118M415.44 394.49h-1.132c-.565 0-1.07-.353-1.118-.951-.042-.53.386-1.118.952-1.118h1.132c.565 0 1.07.353 1.118.951.043.53-.386 1.118-.952 1.118M298.04 591.94c-1.327 0-1.508-2.07-.166-2.07 1.327 0 1.508 2.07.166 2.07M302.82 766.453c-1.328 0-1.508-2.07-.166-2.07 1.327 0 1.507 2.07.166 2.07M389.65 700.98c-.289.023-.61-.21-.61-.519v-1.51c0-.308.193-.583.52-.61.288-.023.61.211.61.52v1.51c0 .308-.194.583-.52.609"/><g fill="#E6E7E8"><path d="M43.36 497.44c-.337.027-.711-.245-.711-.606v-1.132c0-.36.225-.68.605-.711.338-.027.712.245.712.606v1.132c0 .36-.225.68-.606.711M126.58 618.85l1.21-5.33 5.33-1.21-5.33-1.21-1.21-5.33-1.21 5.33-5.329 1.21 5.329 1.21 1.21 5.33M112.316 766.004l1.024-4.502 4.503-1.025-4.503-1.025-1.024-4.502-1.025 4.502-4.502 1.025 4.502 1.025 1.025 4.502M28.288 715.1c-.332.4-.896.744-1.432.744h-1.132c-.558 0-1.05-.107-1.491-.472a2.087 2.087 0 01-.744-1.432 2.09 2.09 0 01.472-1.492c.33-.4.896-.743 1.431-.743h1.132c.558 0 1.05.106 1.492.472.428.354.7.877.743 1.431a2.087 2.087 0 01-.472 1.492M140.95 776.434c-.354.23-.877.377-1.431.401-.537.023-1.078-.07-1.492-.254-.4-.18-.744-.484-.744-.773v-.61c0-.302.107-.567.472-.805.355-.23.878-.377 1.432-.401.536-.024 1.078.07 1.491.254.4.179.744.484.744.773v.61c0 .301-.106.567-.472.805M62.964 706.51c-.337.027-.711-.245-.711-.606v-1.132c0-.36.225-.68.605-.71.337-.028.711.244.711.605v1.132c0 .36-.224.68-.605.71M92.794 775.412c-.337.027-.711-.245-.711-.606v-1.132c0-.36.225-.68.605-.71.338-.028.711.244.711.605v1.132c0 .36-.224.68-.605.711M100.794 552.1c-.337.027-.712-.245-.712-.606v-1.132c0-.36.225-.68.606-.71.337-.028.711.245.711.605v1.132c0 .36-.224.68-.605.711M42.62 593.7h-1.132c-.565 0-1.07-.353-1.118-.951-.043-.53.386-1.118.952-1.118h1.132c.565 0 1.07.353 1.117.951.043.53-.385 1.118-.951 1.118M42.62 636.71h-1.132c-.565 0-1.07-.354-1.118-.952-.043-.53.386-1.118.952-1.118h1.132c.565 0 1.07.354 1.117.952.043.53-.385 1.118-.951 1.118M88.959 642.98c-1.328 0-1.508-2.07-.166-2.07 1.327 0 1.507 2.07.166 2.07M67.109 469.09h-1.132c-.565 0-1.07-.353-1.118-.951-.043-.53.386-1.118.952-1.118h1.132c.565 0 1.07.353 1.118.951.042.53-.386 1.118-.952 1.118M146.44 415.49h-1.132c-.565 0-1.07-.353-1.118-.951-.042-.53.386-1.118.952-1.118h1.132c.565 0 1.07.353 1.118.951.043.53-.386 1.118-.952 1.118M29.037 612.94c-1.327 0-1.508-2.07-.166-2.07 1.327 0 1.508 2.07.166 2.07M33.822 787.453c-1.328 0-1.508-2.07-.166-2.07 1.327 0 1.507 2.07.166 2.07M120.651 721.978c-.289.023-.61-.21-.61-.519v-1.51c0-.308.193-.583.52-.61.288-.023.61.211.61.52v1.51c0 .308-.194.583-.52.609"/></g><path d="M170.54 603c-.256.022-.54-.2-.54-.494v-.923c0-.293.17-.555.46-.58.256-.022.54.2.54.494v.923c0 .293-.17.555-.46.58" fill="#E6E7E8"/><path d="M1118 200h428v500h-428z"/><path fill="#E6E7E8" d="M253.5 725l1.2-5.3 5.3-1.2-5.3-1.2-1.2-5.3-1.2 5.3-5.3 1.2 5.3 1.2 1.2 5.3M239.5 872l1.02-4.48 4.48-1.02-4.48-1.02-1.02-4.48-1.02 4.48-4.48 1.02 4.48 1.02 1.02 4.48M155.55 821.28c-.313.386-.848.719-1.355.719h-1.07c-.529 0-.994-.103-1.412-.456a2.031 2.031 0 01-.257-2.825c.313-.387.847-.72 1.355-.72h1.07c.529 0 .994.104 1.412.457a2.032 2.032 0 01.257 2.825M267.54 882.57c-.342.243-.848.397-1.383.422-.519.025-1.042-.073-1.442-.268-.386-.188-.719-.509-.719-.813v-.642c0-.317.103-.596.456-.847.343-.243.849-.397 1.384-.422.518-.025 1.042.073 1.441.267.387.189.72.51.72.813v.643c0 .317-.103.596-.457.847M189.54 812c-.256.022-.54-.2-.54-.494v-.923c0-.293.17-.555.46-.58.256-.022.54.2.54.494v.923c0 .293-.17.555-.46.58M219.54 881c-.256.022-.54-.2-.54-.494v-.923c0-.293.17-.555.46-.58.256-.022.54.2.54.494v.923c0 .293-.17.555-.46.58M227.54 658c-.256.022-.54-.2-.54-.494v-.923c0-.293.17-.555.46-.58.256-.022.54.2.54.494v.923c0 .293-.171.555-.46.58M169.11 700h-1.059c-.528 0-1-.342-1.045-.92-.04-.511.36-1.08.89-1.08h1.058c.53 0 1.001.342 1.046.92.04.512-.36 1.08-.89 1.08M169.11 743h-1.059c-.528 0-1-.342-1.045-.92-.04-.511.36-1.08.89-1.08h1.058c.53 0 1.001.342 1.046.92.04.512-.36 1.08-.89 1.08M216.08 749c-1.321 0-1.5-2-.166-2 1.321 0 1.5 2 .166 2M194.11 575h-1.059c-.528 0-1-.341-1.045-.92-.04-.512.36-1.08.89-1.08h1.058c.53 0 1 .341 1.046.92.04.512-.36 1.08-.89 1.08M273.11 521h-1.059c-.528 0-1-.342-1.045-.92-.04-.512.36-1.08.89-1.08h1.059c.528 0 1 .342 1.045.92.04.512-.36 1.08-.89 1.08M156.08 719c-1.32 0-1.5-2-.165-2 1.32 0 1.5 2 .165 2M161.08 893c-1.321 0-1.5-2-.165-2 1.32 0 1.5 2 .165 2M247.54 828c-.256.027-.54-.239-.54-.59v-1.714c0-.35.17-.662.46-.692.256-.027.54.239.54.59v1.714c0 .35-.171.662-.46.692"/><g fill="#E6E7E8" opacity=".552"><path d="M572.36 161.44c-.337.027-.711-.245-.711-.606v-1.132c0-.36.225-.68.605-.711.338-.027.712.245.712.606v1.132c0 .36-.225.68-.606.711M655.58 282.85l1.21-5.33 5.33-1.21-5.33-1.21-1.21-5.33-1.21 5.33-5.329 1.21 5.329 1.21 1.21 5.33M641.316 430.004l1.024-4.502 4.503-1.025-4.503-1.025-1.024-4.502-1.025 4.502-4.502 1.025 4.502 1.025 1.025 4.502M557.288 379.1c-.332.4-.896.744-1.432.744h-1.132c-.558 0-1.05-.107-1.491-.472a2.087 2.087 0 01-.744-1.432 2.09 2.09 0 01.472-1.492c.33-.4.896-.743 1.431-.743h1.132c.558 0 1.05.106 1.492.472.428.354.7.877.743 1.431a2.087 2.087 0 01-.472 1.492M669.95 440.434c-.354.23-.877.377-1.431.401-.537.023-1.078-.07-1.492-.254-.4-.18-.744-.484-.744-.773v-.61c0-.302.107-.567.472-.805.355-.23.878-.377 1.432-.401.536-.024 1.078.07 1.491.254.4.179.744.484.744.773v.61c0 .301-.106.567-.472.805M591.964 370.51c-.337.027-.711-.245-.711-.606v-1.132c0-.36.225-.68.605-.71.337-.028.711.244.711.605v1.132c0 .36-.224.68-.605.71M621.794 439.412c-.337.027-.711-.245-.711-.606v-1.132c0-.36.225-.68.605-.71.338-.028.711.244.711.605v1.132c0 .36-.224.68-.605.711M629.794 216.1c-.337.027-.712-.245-.712-.606v-1.132c0-.36.225-.68.606-.71.337-.028.711.245.711.605v1.132c0 .36-.224.68-.605.711M571.62 257.7h-1.132c-.565 0-1.07-.353-1.118-.951-.043-.53.386-1.118.952-1.118h1.132c.565 0 1.07.353 1.117.951.043.53-.385 1.118-.951 1.118M571.62 300.71h-1.132c-.565 0-1.07-.354-1.118-.952-.043-.53.386-1.118.952-1.118h1.132c.565 0 1.07.354 1.117.952.043.53-.385 1.118-.951 1.118M617.959 306.98c-1.328 0-1.508-2.07-.166-2.07 1.327 0 1.507 2.07.166 2.07M596.109 133.09h-1.132c-.565 0-1.07-.353-1.118-.951-.043-.53.386-1.118.952-1.118h1.132c.565 0 1.07.353 1.118.951.042.53-.386 1.118-.952 1.118M675.44 79.49h-1.132c-.565 0-1.07-.353-1.118-.951-.042-.53.386-1.118.952-1.118h1.132c.565 0 1.07.353 1.118.951.043.53-.386 1.118-.952 1.118M558.037 276.94c-1.327 0-1.508-2.07-.166-2.07 1.327 0 1.508 2.07.166 2.07M562.822 451.453c-1.328 0-1.508-2.07-.166-2.07 1.327 0 1.507 2.07.166 2.07M649.651 385.978c-.289.023-.61-.21-.61-.519v-1.51c0-.308.193-.583.52-.61.288-.023.61.211.61.52v1.51c0 .308-.194.583-.52.609"/></g><g fill="#E6E7E8" opacity=".552"><path d="M1730.36 361.44c-.337.027-.711-.245-.711-.606v-1.132c0-.36.225-.68.605-.711.338-.027.712.245.712.606v1.132c0 .36-.225.68-.606.711M1813.58 482.85l1.21-5.33 5.33-1.21-5.33-1.21-1.21-5.33-1.21 5.33-5.329 1.21 5.329 1.21 1.21 5.33M1799.316 630.004l1.024-4.502 4.503-1.025-4.503-1.025-1.024-4.502-1.025 4.502-4.502 1.025 4.502 1.025 1.025 4.502M1715.287 579.1c-.33.4-.895.744-1.431.744h-1.132c-.558 0-1.05-.107-1.491-.472a2.087 2.087 0 01-.744-1.432 2.09 2.09 0 01.472-1.492c.33-.4.896-.743 1.431-.743h1.132c.558 0 1.05.106 1.492.472.428.354.7.877.743 1.431a2.087 2.087 0 01-.472 1.492M1827.95 640.434c-.354.23-.877.377-1.431.401-.537.023-1.078-.07-1.492-.254-.4-.18-.744-.484-.744-.773v-.61c0-.302.107-.567.472-.805.355-.23.878-.377 1.432-.401.536-.024 1.078.07 1.491.254.4.179.744.484.744.773v.61c0 .301-.106.567-.472.805M1749.964 570.51c-.337.027-.711-.245-.711-.606v-1.132c0-.36.225-.68.605-.71.337-.028.711.244.711.605v1.132c0 .36-.224.68-.605.71M1779.794 639.412c-.337.027-.711-.245-.711-.606v-1.132c0-.36.225-.68.605-.71.338-.028.711.244.711.605v1.132c0 .36-.224.68-.605.711M1787.794 416.1c-.337.027-.712-.245-.712-.606v-1.132c0-.36.225-.68.606-.71.337-.028.711.245.711.605v1.132c0 .36-.224.68-.605.711M1729.62 457.7h-1.132c-.565 0-1.07-.353-1.118-.951-.043-.53.386-1.118.952-1.118h1.132c.565 0 1.07.353 1.117.951.043.53-.385 1.118-.951 1.118M1729.62 500.71h-1.132c-.565 0-1.07-.354-1.118-.952-.043-.53.386-1.118.952-1.118h1.132c.565 0 1.07.354 1.117.952.043.53-.385 1.118-.951 1.118M1775.959 506.98c-1.328 0-1.508-2.07-.166-2.07 1.327 0 1.507 2.07.166 2.07M1754.109 333.09h-1.132c-.565 0-1.07-.353-1.118-.951-.043-.53.386-1.118.952-1.118h1.132c.565 0 1.07.353 1.118.951.042.53-.386 1.118-.952 1.118M1833.44 279.49h-1.132c-.565 0-1.07-.353-1.118-.951-.042-.53.386-1.118.952-1.118h1.132c.565 0 1.07.353 1.118.951.043.53-.386 1.118-.952 1.118M1716.037 476.94c-1.327 0-1.508-2.07-.166-2.07 1.327 0 1.508 2.07.166 2.07M1720.822 651.453c-1.328 0-1.508-2.07-.166-2.07 1.327 0 1.507 2.07.166 2.07M1807.651 585.978c-.289.023-.61-.21-.61-.519v-1.51c0-.308.193-.583.52-.61.288-.023.61.211.61.52v1.51c0 .308-.194.583-.52.609"/></g><g fill="#E6E7E8" opacity=".552"><path d="M1730.36 361.44c-.337.027-.711-.245-.711-.606v-1.132c0-.36.225-.68.605-.711.338-.027.712.245.712.606v1.132c0 .36-.225.68-.606.711M1813.58 482.85l1.21-5.33 5.33-1.21-5.33-1.21-1.21-5.33-1.21 5.33-5.329 1.21 5.329 1.21 1.21 5.33M1799.316 630.004l1.024-4.502 4.503-1.025-4.503-1.025-1.024-4.502-1.025 4.502-4.502 1.025 4.502 1.025 1.025 4.502M1715.287 579.1c-.33.4-.895.744-1.431.744h-1.132c-.558 0-1.05-.107-1.491-.472a2.087 2.087 0 01-.744-1.432 2.09 2.09 0 01.472-1.492c.33-.4.896-.743 1.431-.743h1.132c.558 0 1.05.106 1.492.472.428.354.7.877.743 1.431a2.087 2.087 0 01-.472 1.492M1827.95 640.434c-.354.23-.877.377-1.431.401-.537.023-1.078-.07-1.492-.254-.4-.18-.744-.484-.744-.773v-.61c0-.302.107-.567.472-.805.355-.23.878-.377 1.432-.401.536-.024 1.078.07 1.491.254.4.179.744.484.744.773v.61c0 .301-.106.567-.472.805M1749.964 570.51c-.337.027-.711-.245-.711-.606v-1.132c0-.36.225-.68.605-.71.337-.028.711.244.711.605v1.132c0 .36-.224.68-.605.71M1779.794 639.412c-.337.027-.711-.245-.711-.606v-1.132c0-.36.225-.68.605-.71.338-.028.711.244.711.605v1.132c0 .36-.224.68-.605.711M1787.794 416.1c-.337.027-.712-.245-.712-.606v-1.132c0-.36.225-.68.606-.71.337-.028.711.245.711.605v1.132c0 .36-.224.68-.605.711M1729.62 457.7h-1.132c-.565 0-1.07-.353-1.118-.951-.043-.53.386-1.118.952-1.118h1.132c.565 0 1.07.353 1.117.951.043.53-.385 1.118-.951 1.118M1729.62 500.71h-1.132c-.565 0-1.07-.354-1.118-.952-.043-.53.386-1.118.952-1.118h1.132c.565 0 1.07.354 1.117.952.043.53-.385 1.118-.951 1.118M1775.959 506.98c-1.328 0-1.508-2.07-.166-2.07 1.327 0 1.507 2.07.166 2.07M1754.109 333.09h-1.132c-.565 0-1.07-.353-1.118-.951-.043-.53.386-1.118.952-1.118h1.132c.565 0 1.07.353 1.118.951.042.53-.386 1.118-.952 1.118M1833.44 279.49h-1.132c-.565 0-1.07-.353-1.118-.951-.042-.53.386-1.118.952-1.118h1.132c.565 0 1.07.353 1.118.951.043.53-.386 1.118-.952 1.118M1716.037 476.94c-1.327 0-1.508-2.07-.166-2.07 1.327 0 1.508 2.07.166 2.07M1720.822 651.453c-1.328 0-1.508-2.07-.166-2.07 1.327 0 1.507 2.07.166 2.07M1807.651 585.978c-.289.023-.61-.21-.61-.519v-1.51c0-.308.193-.583.52-.61.288-.023.61.211.61.52v1.51c0 .308-.194.583-.52.609"/></g><g opacity=".552"><path d="M250.03 263.44c-.336.027-.71-.245-.71-.606v-1.132c0-.36.224-.68.604-.711.337-.027.71.245.71.606v1.132c0 .36-.224.68-.604.711" fill="#E6E7E8"/><path d="M-62 138.1h428v499.853H-62z"/><path d="M-62 138.1h428v499.853H-62z"/><path fill="#E6E7E8" d="M333.16 384.85l1.21-5.33 5.32-1.21-5.32-1.21-1.21-5.33-1.21 5.33-5.32 1.21 5.32 1.21 1.21 5.33M318.92 532l1.02-4.5 4.5-1.02-4.5-1.03-1.02-4.5-1.03 4.5-4.5 1.03 4.5 1.02 1.03 4.5M234.98 481.1c-.33.4-.895.744-1.43.744h-1.13c-.558 0-1.05-.107-1.49-.472a2.088 2.088 0 01-.744-1.432 2.092 2.092 0 01.472-1.492c.33-.4.895-.743 1.43-.743h1.13c.558 0 1.05.106 1.49.472.428.354.7.877.744 1.431a2.089 2.089 0 01-.472 1.492M347.52 542.434c-.354.23-.876.377-1.43.401-.535.023-1.076-.07-1.49-.254-.4-.18-.743-.484-.743-.773v-.61c0-.302.107-.567.472-.805.354-.23.876-.377 1.43-.401.535-.024 1.076.07 1.49.254.4.179.743.484.743.773v.61c0 .301-.106.567-.472.805M269.62 472.51c-.337.027-.71-.245-.71-.606v-1.132c0-.36.224-.68.604-.71.337-.028.71.244.71.605v1.132c0 .36-.224.68-.604.71M299.42 541.412c-.336.027-.71-.245-.71-.606v-1.132c0-.36.224-.68.604-.71.337-.028.71.244.71.605v1.132c0 .36-.224.68-.604.711M307.41 318.1c-.337.027-.71-.245-.71-.606v-1.132c0-.36.224-.68.604-.71.337-.028.71.245.71.605v1.132c0 .36-.224.68-.604.711M249.29 359.7h-1.13c-.565 0-1.07-.353-1.118-.951-.042-.53.385-1.118.951-1.118h1.13c.565 0 1.07.353 1.117.951.043.53-.385 1.118-.95 1.118M249.29 402.71h-1.13c-.565 0-1.07-.354-1.118-.952-.042-.53.385-1.118.951-1.118h1.13c.565 0 1.07.354 1.117.952.043.53-.385 1.118-.95 1.118M295.58 408.98c-1.326 0-1.506-2.07-.166-2.07 1.326 0 1.506 2.07.166 2.07M273.76 235.09h-1.13c-.565 0-1.069-.353-1.117-.951-.043-.53.385-1.118.95-1.118h1.13c.566 0 1.07.353 1.118.951.042.53-.386 1.118-.951 1.118M353.01 181.49h-1.13c-.565 0-1.069-.353-1.117-.951-.043-.53.385-1.118.95-1.118h1.131c.565 0 1.068.353 1.117.951.043.53-.386 1.118-.951 1.118M235.72 378.94c-1.326 0-1.506-2.07-.166-2.07 1.326 0 1.506 2.07.166 2.07M240.5 553.453c-1.326 0-1.506-2.07-.166-2.07 1.326 0 1.506 2.07.166 2.07M327.24 487.98c-.288.023-.609-.21-.609-.519v-1.51c0-.308.192-.583.519-.61.288-.023.609.211.609.52v1.51c0 .308-.193.583-.519.609"/></g><g opacity=".552"><path d="M408.36 255.44c-.337.027-.711-.245-.711-.606v-1.132c0-.36.225-.68.605-.711.338-.027.712.245.712.606v1.132c0 .36-.225.68-.606.711" fill="#E6E7E8"/><path d="M96 130.1h428.45v499.853H96z"/><path fill="#E6E7E8" d="M491.58 376.85l1.21-5.33 5.33-1.21-5.33-1.21-1.21-5.33-1.21 5.33-5.33 1.21 5.33 1.21 1.21 5.33M477.32 524l1.02-4.5 4.5-1.02-4.5-1.03-1.02-4.5-1.03 4.5-4.5 1.03 4.5 1.02 1.03 4.5M393.29 473.1c-.331.4-.896.744-1.432.744h-1.131c-.558 0-1.05-.107-1.492-.472a2.087 2.087 0 01-.744-1.432 2.09 2.09 0 01.472-1.492c.331-.4.896-.743 1.432-.743h1.132c.558 0 1.05.106 1.491.472.428.354.7.877.744 1.431a2.087 2.087 0 01-.472 1.492M505.95 534.434c-.354.23-.877.377-1.431.401-.537.023-1.078-.07-1.492-.254-.4-.18-.744-.484-.744-.773v-.61c0-.302.107-.567.472-.805.355-.23.878-.377 1.432-.401.536-.024 1.078.07 1.491.254.4.179.744.484.744.773v.61c0 .301-.106.567-.472.805M427.96 464.51c-.337.027-.711-.245-.711-.606v-1.132c0-.36.225-.68.605-.71.337-.028.711.244.711.605v1.132c0 .36-.224.68-.605.71M457.79 533.412c-.337.027-.711-.245-.711-.606v-1.132c0-.36.225-.68.605-.71.338-.028.711.244.711.605v1.132c0 .36-.224.68-.605.711M465.79 310.1c-.337.027-.712-.245-.712-.606v-1.132c0-.36.225-.68.606-.71.337-.028.711.245.711.605v1.132c0 .36-.224.68-.605.711M407.62 351.7h-1.132c-.565 0-1.07-.353-1.118-.951-.043-.53.386-1.118.952-1.118h1.132c.565 0 1.07.353 1.117.951.043.53-.385 1.118-.951 1.118M407.62 394.71h-1.132c-.565 0-1.07-.354-1.118-.952-.043-.53.386-1.118.952-1.118h1.132c.565 0 1.07.354 1.117.952.043.53-.385 1.118-.951 1.118M453.96 400.98c-1.328 0-1.508-2.07-.166-2.07 1.327 0 1.507 2.07.166 2.07M432.11 227.09h-1.132c-.565 0-1.07-.353-1.118-.951-.043-.53.386-1.118.952-1.118h1.132c.565 0 1.07.353 1.118.951.042.53-.386 1.118-.952 1.118M511.44 173.49h-1.132c-.565 0-1.07-.353-1.118-.951-.042-.53.386-1.118.952-1.118h1.132c.565 0 1.07.353 1.118.951.043.53-.386 1.118-.952 1.118M394.04 370.94c-1.327 0-1.508-2.07-.166-2.07 1.327 0 1.508 2.07.166 2.07M398.82 545.453c-1.328 0-1.508-2.07-.166-2.07 1.327 0 1.507 2.07.166 2.07M485.65 479.98c-.289.023-.61-.21-.61-.519v-1.51c0-.308.193-.583.52-.61.288-.023.61.211.61.52v1.51c0 .308-.194.583-.52.609"/></g><g><path d="M1600.64 360.44c.337.027.711-.245.711-.606v-1.132c0-.36-.225-.68-.605-.711-.338-.027-.712.245-.712.606v1.132c0 .36.225.68.606.711" fill="#E6E7E8"/><path d="M1913 235.1h-428.45v499.853H1913z"/><path fill="#E6E7E8" d="M1517.42 481.85l-1.21-5.33-5.33-1.21 5.33-1.21 1.21-5.33 1.21 5.33 5.33 1.21-5.33 1.21-1.21 5.33M1531.68 629l-1.02-4.5-4.5-1.02 4.5-1.03 1.02-4.5 1.03 4.5 4.5 1.03-4.5 1.02-1.03 4.5M1615.71 578.1c.331.4.896.744 1.432.744h1.131c.558 0 1.05-.107 1.492-.472.428-.355.7-.878.744-1.432a2.09 2.09 0 00-.472-1.492c-.331-.4-.896-.743-1.432-.743h-1.132c-.558 0-1.05.106-1.491.472-.428.354-.7.877-.744 1.431a2.087 2.087 0 00.472 1.492M1503.05 639.434c.354.23.877.377 1.431.401.537.023 1.078-.07 1.492-.254.4-.18.744-.484.744-.773v-.61c0-.302-.107-.567-.472-.805-.355-.23-.878-.377-1.432-.401-.536-.024-1.078.07-1.491.254-.4.179-.744.484-.744.773v.61c0 .301.106.567.472.805M1581.04 569.51c.337.027.711-.245.711-.606v-1.132c0-.36-.225-.68-.605-.71-.337-.028-.711.244-.711.605v1.132c0 .36.224.68.605.711M1551.21 638.412c.337.027.711-.245.711-.606v-1.132c0-.36-.225-.68-.605-.71-.338-.028-.711.244-.711.605v1.132c0 .36.224.68.605.711M1543.21 415.1c.337.027.712-.245.712-.606v-1.132c0-.36-.225-.68-.606-.71-.337-.028-.711.245-.711.605v1.132c0 .36.224.68.605.711M1601.38 456.7h1.132c.565 0 1.07-.353 1.118-.951.043-.53-.386-1.118-.952-1.118h-1.132c-.565 0-1.07.353-1.117.951-.043.53.385 1.118.951 1.118M1601.38 499.71h1.132c.565 0 1.07-.354 1.118-.952.043-.53-.386-1.118-.952-1.118h-1.132c-.565 0-1.07.354-1.117.952-.043.53.385 1.118.951 1.118M1555.04 505.98c1.328 0 1.508-2.07.166-2.07-1.327 0-1.507 2.07-.166 2.07M1576.89 332.09h1.132c.565 0 1.07-.353 1.118-.951.043-.53-.386-1.118-.952-1.118h-1.132c-.565 0-1.07.353-1.118.951-.042.53.386 1.118.952 1.118M1497.56 278.49h1.132c.565 0 1.07-.353 1.118-.951.042-.53-.386-1.118-.952-1.118h-1.132c-.565 0-1.07.353-1.118.951-.043.53.386 1.118.952 1.118M1614.96 475.94c1.327 0 1.508-2.07.166-2.07-1.327 0-1.508 2.07-.166 2.07M1610.18 650.453c1.328 0 1.508-2.07.166-2.07-1.327 0-1.507 2.07-.166 2.07M1523.35 584.98c.289.023.61-.21.61-.519v-1.51c0-.308-.193-.583-.52-.61-.288-.023-.61.211-.61.52v1.51c0 .308.194.583.52.609"/></g><g opacity=".931"><path d="M717.36 38.44c-.337.027-.711-.245-.711-.606v-1.132c0-.36.225-.68.605-.711.338-.027.712.245.712.606v1.132c0 .36-.225.68-.606.711" fill="#E6E7E8"/><path d="M405-86.9h428.45v499.853H405z"/><path d="M405-86.9h428.45v499.853H405z"/><path fill="#E6E7E8" d="M800.58 159.85l1.21-5.33 5.33-1.21-5.33-1.21-1.21-5.33-1.21 5.33-5.33 1.21 5.33 1.21 1.21 5.33M786.32 307l1.02-4.5 4.5-1.02-4.5-1.03-1.02-4.5-1.03 4.5-4.5 1.03 4.5 1.02 1.03 4.5M702.29 256.1c-.331.4-.896.744-1.432.744h-1.131c-.558 0-1.05-.107-1.492-.472a2.087 2.087 0 01-.744-1.432 2.09 2.09 0 01.472-1.492c.331-.4.896-.743 1.432-.743h1.132c.558 0 1.05.106 1.491.472.428.354.7.877.744 1.431a2.087 2.087 0 01-.472 1.492M814.95 317.434c-.354.23-.877.377-1.431.401-.537.023-1.078-.07-1.492-.254-.4-.18-.744-.484-.744-.773v-.61c0-.302.107-.567.472-.805.355-.23.878-.377 1.432-.401.536-.024 1.078.07 1.491.254.4.179.744.484.744.773v.61c0 .301-.106.567-.472.805M736.96 247.51c-.337.027-.711-.245-.711-.606v-1.132c0-.36.225-.68.605-.71.337-.028.711.244.711.605v1.132c0 .36-.224.68-.605.71M766.79 316.412c-.337.027-.711-.245-.711-.606v-1.132c0-.36.225-.68.605-.71.338-.028.711.244.711.605v1.132c0 .36-.224.68-.605.711M774.79 93.1c-.337.027-.712-.245-.712-.606v-1.132c0-.36.225-.68.606-.71.337-.028.711.245.711.605v1.132c0 .36-.224.68-.605.711M716.62 134.7h-1.132c-.565 0-1.07-.353-1.118-.951-.043-.53.386-1.118.952-1.118h1.132c.565 0 1.07.353 1.117.951.043.53-.385 1.118-.951 1.118M716.62 177.71h-1.132c-.565 0-1.07-.354-1.118-.952-.043-.53.386-1.118.952-1.118h1.132c.565 0 1.07.354 1.117.952.043.53-.385 1.118-.951 1.118M762.96 183.98c-1.328 0-1.508-2.07-.166-2.07 1.327 0 1.507 2.07.166 2.07M741.11 10.09h-1.132c-.565 0-1.07-.353-1.118-.951-.043-.53.386-1.118.952-1.118h1.132c.565 0 1.07.353 1.118.951.042.53-.386 1.118-.952 1.118M703.04 153.94c-1.327 0-1.508-2.07-.166-2.07 1.327 0 1.508 2.07.166 2.07M707.82 328.453c-1.328 0-1.508-2.07-.166-2.07 1.327 0 1.507 2.07.166 2.07M794.65 262.98c-.289.023-.61-.21-.61-.519v-1.51c0-.308.193-.583.52-.61.288-.023.61.211.61.52v1.51c0 .308-.194.583-.52.609"/><g fill="#E6E7E8"><path d="M1190.58 81.85l1.21-5.33 5.33-1.21-5.33-1.21-1.21-5.33-1.21 5.33-5.329 1.21 5.329 1.21 1.21 5.33M1176.316 229.004l1.024-4.502 4.503-1.025-4.503-1.025-1.024-4.502-1.025 4.502-4.502 1.025 4.502 1.025 1.025 4.502M1092.287 178.1c-.33.4-.895.744-1.431.744h-1.132c-.558 0-1.05-.107-1.491-.472a2.087 2.087 0 01-.744-1.432 2.09 2.09 0 01.472-1.492c.33-.4.896-.743 1.431-.743h1.132c.558 0 1.05.106 1.492.472.428.354.7.877.743 1.431a2.087 2.087 0 01-.472 1.492M1204.95 239.434c-.354.23-.877.377-1.431.401-.537.023-1.078-.07-1.492-.254-.4-.18-.744-.484-.744-.773v-.61c0-.302.107-.567.472-.805.355-.23.878-.377 1.432-.401.536-.024 1.078.07 1.491.254.4.179.744.484.744.773v.61c0 .301-.106.567-.472.805M1126.964 169.51c-.337.027-.711-.245-.711-.606v-1.132c0-.36.225-.68.605-.71.337-.028.711.244.711.605v1.132c0 .36-.224.68-.605.71M1156.794 238.412c-.337.027-.711-.245-.711-.606v-1.132c0-.36.225-.68.605-.71.338-.028.711.244.711.605v1.132c0 .36-.224.68-.605.711M1164.794 15.1c-.337.027-.712-.245-.712-.606v-1.132c0-.36.225-.68.606-.71.337-.028.711.245.711.605v1.132c0 .36-.224.68-.605.711M1106.62 56.7h-1.132c-.565 0-1.07-.353-1.118-.951-.043-.53.386-1.118.952-1.118h1.132c.565 0 1.07.353 1.117.951.043.53-.385 1.118-.951 1.118M1106.62 99.71h-1.132c-.565 0-1.07-.354-1.118-.952-.043-.53.386-1.118.952-1.118h1.132c.565 0 1.07.354 1.117.952.043.53-.385 1.118-.951 1.118M1152.959 105.98c-1.328 0-1.508-2.07-.166-2.07 1.327 0 1.507 2.07.166 2.07M1093.037 75.94c-1.327 0-1.508-2.07-.166-2.07 1.327 0 1.508 2.07.166 2.07M1097.822 250.453c-1.328 0-1.508-2.07-.166-2.07 1.327 0 1.507 2.07.166 2.07M1184.651 184.978c-.289.023-.61-.21-.61-.519v-1.51c0-.308.193-.583.52-.61.288-.023.61.211.61.52v1.51c0 .308-.194.583-.52.609"/></g><g><path d="M478-183.9h428.45v499.853H478z"/><path d="M478-183.9h428.45v499.853H478z"/><path fill="#E6E7E8" d="M873.58 62.85l1.21-5.33 5.33-1.21-5.33-1.21-1.21-5.33-1.21 5.33-5.33 1.21 5.33 1.21 1.21 5.33M859.32 210l1.02-4.5 4.5-1.02-4.5-1.03-1.02-4.5-1.03 4.5-4.5 1.03 4.5 1.02 1.03 4.5M775.29 159.1c-.331.4-.896.744-1.432.744h-1.131c-.558 0-1.05-.107-1.492-.472a2.087 2.087 0 01-.744-1.432 2.09 2.09 0 01.472-1.492c.331-.4.896-.743 1.432-.743h1.132c.558 0 1.05.106 1.491.472.428.354.7.877.744 1.431a2.087 2.087 0 01-.472 1.492M887.95 220.434c-.354.23-.877.377-1.431.401-.537.023-1.078-.07-1.492-.254-.4-.18-.744-.484-.744-.773v-.61c0-.302.107-.567.472-.805.355-.23.878-.377 1.432-.401.536-.024 1.078.07 1.491.254.4.179.744.484.744.773v.61c0 .301-.106.567-.472.805M809.96 150.51c-.337.027-.711-.245-.711-.606v-1.132c0-.36.225-.68.605-.71.337-.028.711.244.711.605v1.132c0 .36-.224.68-.605.71M839.79 219.412c-.337.027-.711-.245-.711-.606v-1.132c0-.36.225-.68.605-.71.338-.028.711.244.711.605v1.132c0 .36-.224.68-.605.711M789.62 37.7h-1.132c-.565 0-1.07-.353-1.118-.951-.043-.53.386-1.118.952-1.118h1.132c.565 0 1.07.353 1.117.951.043.53-.385 1.118-.951 1.118M789.62 80.71h-1.132c-.565 0-1.07-.354-1.118-.952-.043-.53.386-1.118.952-1.118h1.132c.565 0 1.07.354 1.117.952.043.53-.385 1.118-.951 1.118M835.96 86.98c-1.328 0-1.508-2.07-.166-2.07 1.327 0 1.507 2.07.166 2.07M776.04 56.94c-1.327 0-1.508-2.07-.166-2.07 1.327 0 1.508 2.07.166 2.07M780.82 231.453c-1.328 0-1.508-2.07-.166-2.07 1.327 0 1.507 2.07.166 2.07M867.65 165.98c-.289.023-.61-.21-.61-.519v-1.51c0-.308.193-.583.52-.61.288-.023.61.211.61.52v1.51c0 .308-.194.583-.52.609"/></g><g fill="#E6E7E8"><path d="M1029.58 76.85l1.21-5.33 5.33-1.21-5.33-1.21-1.21-5.33-1.21 5.33-5.329 1.21 5.329 1.21 1.21 5.33M1015.316 224.004l1.024-4.502 4.503-1.025-4.503-1.025-1.024-4.502-1.025 4.502-4.502 1.025 4.502 1.025 1.025 4.502M931.288 173.1c-.332.4-.896.744-1.432.744h-1.132c-.558 0-1.05-.107-1.491-.472a2.087 2.087 0 01-.744-1.432 2.09 2.09 0 01.472-1.492c.33-.4.896-.743 1.431-.743h1.132c.558 0 1.05.106 1.492.472.428.354.7.877.743 1.431a2.087 2.087 0 01-.472 1.492M1043.95 234.434c-.354.23-.877.377-1.431.401-.537.023-1.078-.07-1.492-.254-.4-.18-.744-.484-.744-.773v-.61c0-.302.107-.567.472-.805.355-.23.878-.377 1.432-.401.536-.024 1.078.07 1.491.254.4.179.744.484.744.773v.61c0 .301-.106.567-.472.805M965.964 164.51c-.337.027-.711-.245-.711-.606v-1.132c0-.36.225-.68.605-.71.337-.028.711.244.711.605v1.132c0 .36-.224.68-.605.71M995.794 233.412c-.337.027-.711-.245-.711-.606v-1.132c0-.36.225-.68.605-.71.338-.028.711.244.711.605v1.132c0 .36-.224.68-.605.711M1003.794 10.1c-.337.027-.712-.245-.712-.606V8.362c0-.36.225-.68.606-.71.337-.028.711.245.711.605v1.132c0 .36-.224.68-.605.711M945.62 51.7h-1.132c-.565 0-1.07-.353-1.118-.951-.043-.53.386-1.118.952-1.118h1.132c.565 0 1.07.353 1.117.951.043.53-.385 1.118-.951 1.118M945.62 94.71h-1.132c-.565 0-1.07-.354-1.118-.952-.043-.53.386-1.118.952-1.118h1.132c.565 0 1.07.354 1.117.952.043.53-.385 1.118-.951 1.118M991.959 100.98c-1.328 0-1.508-2.07-.166-2.07 1.327 0 1.507 2.07.166 2.07M932.037 70.94c-1.327 0-1.508-2.07-.166-2.07 1.327 0 1.508 2.07.166 2.07M936.822 245.453c-1.328 0-1.508-2.07-.166-2.07 1.327 0 1.507 2.07.166 2.07M1023.651 179.978c-.289.023-.61-.21-.61-.519v-1.51c0-.308.193-.583.52-.61.288-.023.61.211.61.52v1.51c0 .308-.194.583-.52.609"/></g><g><path d="M2034.36 787.56c-.337-.027-.711.245-.711.606v1.132c0 .36.225.68.605.711.338.027.712-.246.712-.606v-1.132c0-.36-.225-.68-.606-.711" fill="#E6E7E8"/><path d="M1722 912.9h428.45V413.047H1722z"/><path d="M1722 912.9h428.45V413.047H1722z"/><path fill="#E6E7E8" d="M2117.58 666.15l1.21 5.33 5.33 1.21-5.33 1.21-1.21 5.33-1.21-5.33-5.33-1.21 5.33-1.21 1.21-5.33M2103.32 519l1.02 4.5 4.5 1.02-4.5 1.03-1.02 4.5-1.03-4.5-4.5-1.03 4.5-1.02 1.03-4.5M2019.29 569.9c-.331-.4-.896-.744-1.432-.744h-1.131c-.558 0-1.05.107-1.492.472-.428.355-.7.878-.744 1.432a2.09 2.09 0 00.472 1.492c.331.4.896.743 1.432.743h1.132c.558 0 1.05-.106 1.491-.472.428-.354.7-.877.744-1.431a2.087 2.087 0 00-.472-1.492M2131.95 508.566c-.354-.23-.877-.377-1.431-.401-.537-.023-1.078.07-1.492.254-.4.18-.744.484-.744.773v.61c0 .302.107.567.472.805.355.23.878.377 1.432.401.536.024 1.078-.07 1.491-.254.4-.179.744-.484.744-.773v-.61c0-.301-.106-.567-.472-.805M2053.96 578.49c-.337-.027-.711.245-.711.606v1.132c0 .36.225.68.605.71.337.028.711-.244.711-.605v-1.132c0-.36-.224-.68-.605-.711M2083.79 509.588c-.337-.027-.711.245-.711.606v1.132c0 .36.225.68.605.71.338.028.711-.244.711-.605V510.3c0-.36-.224-.68-.605-.711M2091.79 732.9c-.337-.027-.712.245-.712.606v1.132c0 .36.225.68.606.71.337.028.711-.245.711-.605v-1.132c0-.36-.224-.68-.605-.711M2033.62 691.3h-1.132c-.565 0-1.07.353-1.118.951-.043.53.386 1.118.952 1.118h1.132c.565 0 1.07-.353 1.117-.951.043-.53-.385-1.118-.951-1.118M2033.62 648.29h-1.132c-.565 0-1.07.354-1.118.952-.043.53.386 1.118.952 1.118h1.132c.565 0 1.07-.354 1.117-.952.043-.53-.385-1.118-.951-1.118M2079.96 642.02c-1.328 0-1.508 2.07-.166 2.07 1.327 0 1.507-2.07.166-2.07M2058.11 815.91h-1.132c-.565 0-1.07.353-1.118.951-.043.53.386 1.118.952 1.118h1.132c.565 0 1.07-.353 1.118-.951.042-.53-.386-1.118-.952-1.118M2137.44 869.51h-1.132c-.565 0-1.07.353-1.118.951-.042.53.386 1.118.952 1.118h1.132c.565 0 1.07-.353 1.118-.951.043-.53-.386-1.118-.952-1.118M2020.04 672.06c-1.327 0-1.508 2.07-.166 2.07 1.327 0 1.508-2.07.166-2.07M2024.82 497.547c-1.328 0-1.508 2.07-.166 2.07 1.327 0 1.507-2.07.166-2.07M2111.65 563.02c-.289-.023-.61.21-.61.519v1.51c0 .308.193.583.52.61.288.023.61-.211.61-.52v-1.51c0-.308-.194-.583-.52-.609"/></g><g fill="#E6E7E8"><path d="M1811.94 760.86c.027-.337-.245-.711-.606-.711h-1.132c-.36 0-.68.225-.711.605-.027.338.246.712.606.712h1.132c.36 0 .68-.225.711-.606M1933.35 844.08l-5.33 1.21-1.21 5.33-1.21-5.33-5.33-1.21 5.33-1.21 1.21-5.329 1.21 5.329 5.33 1.21M2080.504 829.816l-4.502 1.024-1.025 4.503-1.025-4.503-4.502-1.024 4.502-1.025 1.025-4.502 1.025 4.502 4.502 1.025M2029.6 745.788c.4-.332.744-.896.744-1.432v-1.132c0-.558-.107-1.05-.472-1.491a2.087 2.087 0 00-1.432-.744 2.09 2.09 0 00-1.492.472c-.4.33-.743.896-.743 1.431v1.132c0 .558.106 1.05.472 1.492.354.428.877.7 1.431.743a2.087 2.087 0 001.492-.472M2090.934 858.45c.23-.354.377-.877.401-1.431.023-.537-.07-1.078-.254-1.492-.18-.4-.484-.744-.773-.744h-.61c-.302 0-.567.107-.805.472-.23.355-.377.878-.401 1.432-.024.536.07 1.078.254 1.491.179.4.484.744.773.744h.61c.301 0 .567-.106.805-.472M2021.01 780.464c.027-.337-.245-.711-.606-.711h-1.132c-.36 0-.68.225-.71.605-.028.337.244.711.605.711h1.132c.36 0 .68-.224.71-.605M2089.912 810.294c.027-.337-.246-.711-.606-.711h-1.132c-.36 0-.68.225-.71.605-.028.338.244.711.605.711h1.132c.36 0 .68-.224.711-.605M1866.6 818.294c.027-.337-.245-.712-.606-.712h-1.132c-.36 0-.68.225-.71.606-.028.337.245.711.605.711h1.132c.36 0 .68-.224.711-.605M1908.2 760.12v-1.132c0-.565-.353-1.07-.951-1.118-.53-.043-1.118.386-1.118.952v1.132c0 .565.353 1.07.951 1.117.53.043 1.118-.385 1.118-.951M1951.21 760.12v-1.132c0-.565-.354-1.07-.952-1.118-.53-.043-1.118.386-1.118.952v1.132c0 .565.354 1.07.952 1.117.53.043 1.118-.385 1.118-.951M1957.48 806.459c0-1.328-2.07-1.508-2.07-.166 0 1.327 2.07 1.507 2.07.166M1783.59 784.609v-1.132c0-.565-.353-1.07-.951-1.118-.53-.043-1.118.386-1.118.952v1.132c0 .565.353 1.07.951 1.118.53.042 1.118-.386 1.118-.952M1729.99 863.94v-1.132c0-.565-.353-1.07-.951-1.118-.53-.042-1.118.386-1.118.952v1.132c0 .565.353 1.07.951 1.118.53.043 1.118-.386 1.118-.952M1927.44 746.537c0-1.327-2.07-1.508-2.07-.166 0 1.327 2.07 1.508 2.07.166M2101.953 751.322c0-1.328-2.07-1.508-2.07-.166 0 1.327 2.07 1.507 2.07.166M2036.478 838.151c.023-.289-.21-.61-.519-.61h-1.51c-.308 0-.583.193-.61.52-.023.288.211.61.52.61h1.51c.308 0 .583-.194.609-.52"/></g></g><g fill="#E6E7E8"><path d="M1753.64 476.44c.337.027.711-.245.711-.606v-1.132c0-.36-.225-.68-.605-.711-.338-.027-.712.245-.712.606v1.132c0 .36.225.68.606.711M1670.42 597.85l-1.21-5.33-5.33-1.21 5.33-1.21 1.21-5.33 1.21 5.33 5.329 1.21-5.329 1.21-1.21 5.33M1684.684 745.004l-1.024-4.502-4.503-1.025 4.503-1.025 1.024-4.502 1.025 4.502 4.502 1.025-4.502 1.025-1.025 4.502M1768.713 694.1c.33.4.895.744 1.431.744h1.132c.558 0 1.05-.107 1.491-.472.428-.355.7-.878.744-1.432a2.09 2.09 0 00-.472-1.492c-.33-.4-.896-.743-1.431-.743h-1.132c-.558 0-1.05.106-1.492.472-.428.354-.7.877-.743 1.431a2.087 2.087 0 00.472 1.492M1656.05 755.434c.354.23.877.377 1.431.401.537.023 1.078-.07 1.492-.254.4-.18.744-.484.744-.773v-.61c0-.302-.107-.567-.472-.805-.355-.23-.878-.377-1.432-.401-.536-.024-1.078.07-1.491.254-.4.179-.744.484-.744.773v.61c0 .301.106.567.472.805M1734.036 685.51c.337.027.711-.245.711-.606v-1.132c0-.36-.225-.68-.605-.71-.337-.028-.711.244-.711.605v1.132c0 .36.224.68.605.71M1704.206 754.412c.337.027.711-.245.711-.606v-1.132c0-.36-.225-.68-.605-.71-.338-.028-.711.244-.711.605v1.132c0 .36.224.68.605.711M1696.206 531.1c.337.027.712-.245.712-.606v-1.132c0-.36-.225-.68-.606-.71-.337-.028-.711.245-.711.605v1.132c0 .36.224.68.605.711M1754.38 572.7h1.132c.565 0 1.07-.353 1.118-.951.043-.53-.386-1.118-.952-1.118h-1.132c-.565 0-1.07.353-1.117.951-.043.53.385 1.118.951 1.118M1754.38 615.71h1.132c.565 0 1.07-.354 1.118-.952.043-.53-.386-1.118-.952-1.118h-1.132c-.565 0-1.07.354-1.117.952-.043.53.385 1.118.951 1.118M1708.041 621.98c1.328 0 1.508-2.07.166-2.07-1.327 0-1.507 2.07-.166 2.07M1729.891 448.09h1.132c.565 0 1.07-.353 1.118-.951.043-.53-.386-1.118-.952-1.118h-1.132c-.565 0-1.07.353-1.118.951-.042.53.386 1.118.952 1.118M1650.56 394.49h1.132c.565 0 1.07-.353 1.118-.951.042-.53-.386-1.118-.952-1.118h-1.132c-.565 0-1.07.353-1.118.951-.043.53.386 1.118.952 1.118M1767.963 591.94c1.327 0 1.508-2.07.166-2.07-1.327 0-1.508 2.07-.166 2.07M1763.178 766.453c1.328 0 1.508-2.07.166-2.07-1.327 0-1.507 2.07-.166 2.07M1676.349 700.978c.289.023.61-.21.61-.519v-1.51c0-.308-.193-.583-.52-.61-.288-.023-.61.211-.61.52v1.51c0 .308.194.583.52.609"/></g><g fill="#E6E7E8"><path d="M1958.64 516.44c.337.027.711-.245.711-.606v-1.132c0-.36-.225-.68-.605-.711-.338-.027-.712.246-.712.606v1.132c0 .36.225.68.606.711M1875.42 637.85l-1.21-5.33-5.33-1.21 5.33-1.21 1.21-5.33 1.21 5.33 5.329 1.21-5.329 1.21-1.21 5.33M1889.684 785.004l-1.024-4.502-4.503-1.025 4.503-1.025 1.024-4.502 1.025 4.502 4.502 1.025-4.502 1.025-1.025 4.502M1973.713 734.1c.33.4.895.744 1.431.744h1.132c.558 0 1.05-.107 1.491-.472.428-.355.7-.878.744-1.432a2.09 2.09 0 00-.472-1.492c-.33-.4-.896-.743-1.431-.743h-1.132c-.558 0-1.05.106-1.492.472-.428.354-.7.877-.743 1.431a2.087 2.087 0 00.472 1.492M1861.05 795.434c.354.23.877.377 1.431.401.537.023 1.078-.07 1.492-.254.4-.18.744-.484.744-.773v-.61c0-.302-.107-.567-.472-.805-.355-.23-.878-.377-1.432-.401-.536-.024-1.078.07-1.491.254-.4.179-.744.484-.744.773v.61c0 .301.106.567.472.805M1939.036 725.51c.337.027.711-.245.711-.606v-1.132c0-.36-.225-.68-.605-.71-.337-.028-.711.244-.711.605v1.132c0 .36.224.68.605.71M1909.206 794.412c.337.027.711-.245.711-.606v-1.132c0-.36-.225-.68-.605-.71-.338-.028-.711.244-.711.605v1.132c0 .36.224.68.605.711M1901.206 571.1c.337.027.712-.245.712-.606v-1.132c0-.36-.225-.68-.606-.71-.337-.028-.711.245-.711.605v1.132c0 .36.224.68.605.711M1959.38 612.7h1.132c.565 0 1.07-.353 1.118-.951.043-.53-.386-1.118-.952-1.118h-1.132c-.565 0-1.07.353-1.117.951-.043.53.385 1.118.951 1.118M1959.38 655.71h1.132c.565 0 1.07-.354 1.118-.952.043-.53-.386-1.118-.952-1.118h-1.132c-.565 0-1.07.354-1.117.952-.043.53.385 1.118.951 1.118M1913.041 661.98c1.328 0 1.508-2.07.166-2.07-1.327 0-1.507 2.07-.166 2.07M1934.891 488.09h1.132c.565 0 1.07-.353 1.118-.951.043-.53-.386-1.118-.952-1.118h-1.132c-.565 0-1.07.353-1.118.951-.042.53.386 1.118.952 1.118M1855.56 434.49h1.132c.565 0 1.07-.353 1.118-.951.042-.53-.386-1.118-.952-1.118h-1.132c-.565 0-1.07.353-1.118.951-.043.53.386 1.118.952 1.118M1972.963 631.94c1.327 0 1.508-2.07.166-2.07-1.327 0-1.508 2.07-.166 2.07M1968.178 806.453c1.328 0 1.508-2.07.166-2.07-1.327 0-1.507 2.07-.166 2.07M1881.349 740.978c.289.023.61-.21.61-.519v-1.51c0-.308-.193-.583-.52-.61-.288-.023-.61.211-.61.52v1.51c0 .308.194.583.52.609"/></g><g fill="#E6E7E8" opacity=".552"><path d="M1324.44 220.64c.027.337-.245.711-.606.711h-1.132c-.36 0-.68-.225-.711-.605-.027-.338.246-.712.606-.712h1.132c.36 0 .68.225.711.606M1445.85 137.42l-5.33-1.21-1.21-5.33-1.21 5.33-5.33 1.21 5.33 1.21 1.21 5.329 1.21-5.329 5.33-1.21M1593.004 151.684l-4.502-1.024-1.025-4.503-1.025 4.503-4.502 1.024 4.502 1.025 1.025 4.502 1.025-4.502 4.502-1.025M1542.1 235.713c.4.33.744.895.744 1.431v1.132c0 .558-.107 1.05-.472 1.491-.355.428-.878.7-1.432.744a2.09 2.09 0 01-1.492-.472c-.4-.33-.743-.896-.743-1.431v-1.132c0-.558.106-1.05.472-1.492.354-.428.877-.7 1.431-.743a2.087 2.087 0 011.492.472M1603.434 123.05c.23.354.377.877.401 1.431.023.537-.07 1.078-.254 1.492-.18.4-.484.744-.773.744h-.61c-.302 0-.567-.107-.805-.472-.23-.355-.377-.878-.401-1.432-.024-.536.07-1.078.254-1.491.179-.4.484-.744.773-.744h.61c.301 0 .567.106.805.472M1533.51 201.036c.027.337-.245.711-.606.711h-1.132c-.36 0-.68-.225-.71-.605-.028-.337.244-.711.605-.711h1.132c.36 0 .68.224.71.605M1602.412 171.206c.027.337-.246.711-.606.711h-1.132c-.36 0-.68-.225-.71-.605-.028-.338.244-.711.605-.711h1.132c.36 0 .68.224.711.605M1379.1 163.206c.027.337-.245.712-.606.712h-1.132c-.36 0-.68-.225-.71-.606-.028-.337.245-.711.605-.711h1.132c.36 0 .68.224.711.605M1420.7 221.38v1.132c0 .565-.353 1.07-.951 1.118-.53.043-1.118-.386-1.118-.952v-1.132c0-.565.353-1.07.951-1.117.53-.043 1.118.385 1.118.951M1463.71 221.38v1.132c0 .565-.354 1.07-.952 1.118-.53.043-1.118-.386-1.118-.952v-1.132c0-.565.354-1.07.952-1.117.53-.043 1.118.385 1.118.951M1469.98 175.041c0 1.328-2.07 1.508-2.07.166 0-1.327 2.07-1.507 2.07-.166M1296.09 196.891v1.132c0 .565-.353 1.07-.951 1.118-.53.043-1.118-.386-1.118-.952v-1.132c0-.565.353-1.07.951-1.118.53-.042 1.118.386 1.118.952M1242.49 117.56v1.132c0 .565-.353 1.07-.951 1.118-.53.042-1.118-.386-1.118-.952v-1.132c0-.565.353-1.07.951-1.118.53-.043 1.118.386 1.118.952M1439.94 234.963c0 1.327-2.07 1.508-2.07.166 0-1.327 2.07-1.508 2.07-.166M1614.453 230.178c0 1.328-2.07 1.508-2.07.166 0-1.327 2.07-1.507 2.07-.166M1548.978 143.349c.023.289-.21.61-.519.61h-1.51c-.308 0-.583-.193-.61-.52-.023-.288.211-.61.52-.61h1.51c.308 0 .583.194.609.52"/></g><g fill="#E6E7E8"><path d="M1532.44 345.64c.027.337-.245.711-.606.711h-1.132c-.36 0-.68-.225-.711-.605-.027-.338.246-.712.606-.712h1.132c.36 0 .68.225.711.606M1653.85 262.42l-5.33-1.21-1.21-5.33-1.21 5.33-5.33 1.21 5.33 1.21 1.21 5.329 1.21-5.329 5.33-1.21M1801.004 276.684l-4.502-1.024-1.025-4.503-1.025 4.503-4.502 1.024 4.502 1.025 1.025 4.502 1.025-4.502 4.502-1.025M1750.1 360.712c.4.332.744.896.744 1.432v1.132c0 .558-.107 1.05-.472 1.491-.355.428-.878.7-1.432.744a2.09 2.09 0 01-1.492-.472c-.4-.33-.743-.896-.743-1.431v-1.132c0-.558.106-1.05.472-1.492.354-.428.877-.7 1.431-.743a2.087 2.087 0 011.492.472M1811.434 248.05c.23.354.377.877.401 1.431.023.537-.07 1.078-.254 1.492-.18.4-.484.744-.773.744h-.61c-.302 0-.567-.107-.805-.472-.23-.355-.377-.878-.401-1.432-.024-.536.07-1.078.254-1.491.179-.4.484-.744.773-.744h.61c.301 0 .567.106.805.472M1741.51 326.036c.027.337-.245.711-.606.711h-1.132c-.36 0-.68-.225-.71-.605-.028-.337.244-.711.605-.711h1.132c.36 0 .68.224.71.605M1810.412 296.206c.027.337-.246.711-.606.711h-1.132c-.36 0-.68-.225-.71-.605-.028-.338.244-.711.605-.711h1.132c.36 0 .68.224.711.605M1587.1 288.206c.027.337-.245.712-.606.712h-1.132c-.36 0-.68-.225-.71-.606-.028-.337.245-.711.605-.711h1.132c.36 0 .68.224.711.605M1628.7 346.38v1.132c0 .565-.353 1.07-.951 1.118-.53.043-1.118-.386-1.118-.952v-1.132c0-.565.353-1.07.951-1.117.53-.043 1.118.385 1.118.951M1671.71 346.38v1.132c0 .565-.354 1.07-.952 1.118-.53.043-1.118-.386-1.118-.952v-1.132c0-.565.354-1.07.952-1.117.53-.043 1.118.385 1.118.951M1677.98 300.041c0 1.328-2.07 1.508-2.07.166 0-1.327 2.07-1.507 2.07-.166M1504.09 321.891v1.132c0 .565-.353 1.07-.951 1.118-.53.043-1.118-.386-1.118-.952v-1.132c0-.565.353-1.07.951-1.118.53-.042 1.118.386 1.118.952M1450.49 242.56v1.132c0 .565-.353 1.07-.951 1.118-.53.042-1.118-.386-1.118-.952v-1.132c0-.565.353-1.07.951-1.118.53-.043 1.118.386 1.118.952M1647.94 359.963c0 1.327-2.07 1.508-2.07.166 0-1.327 2.07-1.508 2.07-.166M1822.453 355.178c0 1.328-2.07 1.508-2.07.166 0-1.327 2.07-1.507 2.07-.166M1756.978 268.349c.023.289-.21.61-.519.61h-1.51c-.308 0-.583-.193-.61-.52-.023-.288.211-.61.52-.61h1.51c.308 0 .583.194.609.52"/></g></g></svg>